<svg width="1832" height="370" viewBox="0 0 1832 370" fill="none" xmlns="http://www.w3.org/2000/svg">
<g filter="url(#filter0_d_527_100)">
<path d="M492.72 122.86H569.94V139.6H510.18V181.18H562.56V197.74H510.18V253H492.72V122.86ZM619.468 254.8C610.948 254.8 603.628 253.12 597.508 249.76C591.388 246.28 586.648 241.6 583.288 235.72C580.048 229.72 578.428 222.88 578.428 215.2C578.428 207.88 580.288 201.22 584.008 195.22C587.728 189.22 592.708 184.42 598.948 180.82C605.188 177.22 612.148 175.42 619.828 175.42C629.668 175.42 637.828 178.3 644.308 184.06C650.788 189.82 655.168 197.74 657.448 207.82L596.068 229.42L592.108 219.52L642.508 201.16L638.908 203.5C637.468 199.54 635.068 196.12 631.708 193.24C628.348 190.24 623.968 188.74 618.568 188.74C614.008 188.74 609.928 189.88 606.328 192.16C602.728 194.32 599.908 197.32 597.868 201.16C595.828 205 594.808 209.38 594.808 214.3C594.808 219.46 595.888 224.02 598.048 227.98C600.208 231.82 603.148 234.88 606.868 237.16C610.708 239.32 615.028 240.4 619.828 240.4C623.068 240.4 626.188 239.8 629.188 238.6C632.308 237.4 635.188 235.84 637.828 233.92L645.568 246.34C641.848 248.86 637.648 250.9 632.968 252.46C628.408 254.02 623.908 254.8 619.468 254.8ZM693.364 178.48L694.984 200.08L694.084 197.2C696.004 192.64 698.764 188.8 702.364 185.68C706.084 182.44 709.924 179.98 713.884 178.3C717.964 176.5 721.504 175.6 724.504 175.6L723.604 192.16C717.964 191.8 712.984 192.88 708.664 195.4C704.464 197.92 701.104 201.28 698.584 205.48C696.184 209.68 694.984 214.18 694.984 218.98V253H678.424V178.48H693.364ZM761.04 178.48L762.48 196.66L761.76 193.78C764.16 188.26 768.06 183.88 773.46 180.64C778.86 177.28 785.1 175.6 792.18 175.6C799.26 175.6 805.02 177.7 809.46 181.9C814.02 185.98 816.36 191.32 816.48 197.92V253H799.56V203.86C799.44 199.78 798.24 196.48 795.96 193.96C793.8 191.32 790.38 190 785.7 190C781.38 190 777.48 191.2 774 193.6C770.52 196 767.76 199.3 765.72 203.5C763.8 207.7 762.84 212.56 762.84 218.08V253H746.1V178.48H761.04ZM876.552 254.8C869.592 254.8 863.232 253.3 857.472 250.3C851.832 247.3 847.332 242.92 843.972 237.16C840.732 231.28 839.112 224.14 839.112 215.74C839.112 207.46 840.852 200.32 844.332 194.32C847.812 188.2 852.432 183.52 858.192 180.28C864.072 177.04 870.492 175.42 877.452 175.42C884.412 175.42 890.292 177.04 895.092 180.28C899.892 183.4 903.552 187.12 906.072 191.44L904.992 194.32L906.612 178.48H922.092V253H905.352V233.56L907.152 237.88C906.672 239.08 905.592 240.64 903.912 242.56C902.352 244.36 900.192 246.22 897.432 248.14C894.792 250.06 891.732 251.68 888.252 253C884.772 254.2 880.872 254.8 876.552 254.8ZM881.052 240.94C885.252 240.94 889.032 240.16 892.392 238.6C895.752 237.04 898.512 234.88 900.672 232.12C902.952 229.24 904.512 225.82 905.352 221.86V207.28C904.392 203.68 902.712 200.56 900.312 197.92C897.912 195.16 895.032 193.06 891.672 191.62C888.312 190.06 884.592 189.28 880.512 189.28C876.072 189.28 871.992 190.36 868.272 192.52C864.552 194.68 861.552 197.68 859.272 201.52C857.112 205.36 856.032 209.86 856.032 215.02C856.032 219.82 857.172 224.2 859.452 228.16C861.732 232.12 864.792 235.24 868.632 237.52C872.472 239.8 876.612 240.94 881.052 240.94ZM966 178.48L967.44 196.66L966.72 193.78C969.12 188.26 973.02 183.88 978.42 180.64C983.82 177.28 990.06 175.6 997.14 175.6C1004.22 175.6 1009.98 177.7 1014.42 181.9C1018.98 185.98 1021.32 191.32 1021.44 197.92V253H1004.52V203.86C1004.4 199.78 1003.2 196.48 1000.92 193.96C998.76 191.32 995.34 190 990.66 190C986.34 190 982.44 191.2 978.96 193.6C975.48 196 972.72 199.3 970.68 203.5C968.76 207.7 967.8 212.56 967.8 218.08V253H951.06V178.48H966ZM1080.79 254.8C1073.95 254.8 1067.71 253.18 1062.07 249.94C1056.55 246.58 1052.17 241.9 1048.93 235.9C1045.69 229.78 1044.07 222.76 1044.07 214.84C1044.07 206.56 1045.75 199.48 1049.11 193.6C1052.59 187.72 1057.27 183.22 1063.15 180.1C1069.03 176.98 1075.63 175.42 1082.95 175.42C1088.83 175.42 1094.41 176.68 1099.69 179.2C1105.09 181.72 1109.29 185.2 1112.29 189.64L1111.57 195.58V113.68H1128.13V253H1111.39V234.46L1113.19 239.14C1109.71 243.7 1105.21 247.48 1099.69 250.48C1094.17 253.36 1087.87 254.8 1080.79 254.8ZM1086.01 240.58C1090.45 240.58 1094.41 239.8 1097.89 238.24C1101.37 236.56 1104.25 234.28 1106.53 231.4C1108.81 228.52 1110.43 225.1 1111.39 221.14V207.1C1110.43 203.5 1108.69 200.38 1106.17 197.74C1103.77 194.98 1100.83 192.82 1097.35 191.26C1093.99 189.58 1090.21 188.74 1086.01 188.74C1081.45 188.74 1077.25 189.88 1073.41 192.16C1069.69 194.32 1066.69 197.32 1064.41 201.16C1062.13 205 1060.99 209.44 1060.99 214.48C1060.99 219.4 1062.13 223.84 1064.41 227.8C1066.69 231.64 1069.75 234.76 1073.59 237.16C1077.43 239.44 1081.57 240.58 1086.01 240.58ZM1188.21 254.8C1181.25 254.8 1174.89 253.3 1169.13 250.3C1163.49 247.3 1158.99 242.92 1155.63 237.16C1152.39 231.28 1150.77 224.14 1150.77 215.74C1150.77 207.46 1152.51 200.32 1155.99 194.32C1159.47 188.2 1164.09 183.52 1169.85 180.28C1175.73 177.04 1182.15 175.42 1189.11 175.42C1196.07 175.42 1201.95 177.04 1206.75 180.28C1211.55 183.4 1215.21 187.12 1217.73 191.44L1216.65 194.32L1218.27 178.48H1233.75V253H1217.01V233.56L1218.81 237.88C1218.33 239.08 1217.25 240.64 1215.57 242.56C1214.01 244.36 1211.85 246.22 1209.09 248.14C1206.45 250.06 1203.39 251.68 1199.91 253C1196.43 254.2 1192.53 254.8 1188.21 254.8ZM1192.71 240.94C1196.91 240.94 1200.69 240.16 1204.05 238.6C1207.41 237.04 1210.17 234.88 1212.33 232.12C1214.61 229.24 1216.17 225.82 1217.01 221.86V207.28C1216.05 203.68 1214.37 200.56 1211.97 197.92C1209.57 195.16 1206.69 193.06 1203.33 191.62C1199.97 190.06 1196.25 189.28 1192.17 189.28C1187.73 189.28 1183.65 190.36 1179.93 192.52C1176.21 194.68 1173.21 197.68 1170.93 201.52C1168.77 205.36 1167.69 209.86 1167.69 215.02C1167.69 219.82 1168.83 224.2 1171.11 228.16C1173.39 232.12 1176.45 235.24 1180.29 237.52C1184.13 239.8 1188.27 240.94 1192.71 240.94ZM1323.81 122.86H1401.03V139.6H1341.27V181.18H1393.65V197.74H1341.27V253H1323.81V122.86ZM1446.96 254.8C1440 254.8 1433.64 253.3 1427.88 250.3C1422.24 247.3 1417.74 242.92 1414.38 237.16C1411.14 231.28 1409.52 224.14 1409.52 215.74C1409.52 207.46 1411.26 200.32 1414.74 194.32C1418.22 188.2 1422.84 183.52 1428.6 180.28C1434.48 177.04 1440.9 175.42 1447.86 175.42C1454.82 175.42 1460.7 177.04 1465.5 180.28C1470.3 183.4 1473.96 187.12 1476.48 191.44L1475.4 194.32L1477.02 178.48H1492.5V253H1475.76V233.56L1477.56 237.88C1477.08 239.08 1476 240.64 1474.32 242.56C1472.76 244.36 1470.6 246.22 1467.84 248.14C1465.2 250.06 1462.14 251.68 1458.66 253C1455.18 254.2 1451.28 254.8 1446.96 254.8ZM1451.46 240.94C1455.66 240.94 1459.44 240.16 1462.8 238.6C1466.16 237.04 1468.92 234.88 1471.08 232.12C1473.36 229.24 1474.92 225.82 1475.76 221.86V207.28C1474.8 203.68 1473.12 200.56 1470.72 197.92C1468.32 195.16 1465.44 193.06 1462.08 191.62C1458.72 190.06 1455 189.28 1450.92 189.28C1446.48 189.28 1442.4 190.36 1438.68 192.52C1434.96 194.68 1431.96 197.68 1429.68 201.52C1427.52 205.36 1426.44 209.86 1426.44 215.02C1426.44 219.82 1427.58 224.2 1429.86 228.16C1432.14 232.12 1435.2 235.24 1439.04 237.52C1442.88 239.8 1447.02 240.94 1451.46 240.94ZM1536.41 178.48L1537.85 196.66L1537.13 193.78C1539.53 188.26 1543.43 183.88 1548.83 180.64C1554.23 177.28 1560.47 175.6 1567.55 175.6C1574.63 175.6 1580.39 177.7 1584.83 181.9C1589.39 185.98 1591.73 191.32 1591.85 197.92V253H1574.93V203.86C1574.81 199.78 1573.61 196.48 1571.33 193.96C1569.17 191.32 1565.75 190 1561.07 190C1556.75 190 1552.85 191.2 1549.37 193.6C1545.89 196 1543.13 199.3 1541.09 203.5C1539.17 207.7 1538.21 212.56 1538.21 218.08V253H1521.47V178.48H1536.41ZM1628.16 145.72H1644.9V178.84H1665.42V191.98H1644.9V253H1628.16V191.98H1614.48V178.84H1628.16V145.72ZM1685.65 178.48H1702.39V253H1685.65V178.48ZM1684.39 151.48C1684.39 148.84 1685.41 146.62 1687.45 144.82C1689.61 143.02 1691.95 142.12 1694.47 142.12C1696.99 142.12 1699.21 143.02 1701.13 144.82C1703.17 146.62 1704.19 148.84 1704.19 151.48C1704.19 154.24 1703.17 156.52 1701.13 158.32C1699.21 160 1696.99 160.84 1694.47 160.84C1691.95 160.84 1689.61 159.94 1687.45 158.14C1685.41 156.34 1684.39 154.12 1684.39 151.48ZM1746.29 178.48L1747.73 196.66L1747.01 193.78C1749.41 188.26 1753.31 183.88 1758.71 180.64C1764.11 177.28 1770.35 175.6 1777.43 175.6C1784.51 175.6 1790.27 177.7 1794.71 181.9C1799.27 185.98 1801.61 191.32 1801.73 197.92V253H1784.81V203.86C1784.69 199.78 1783.49 196.48 1781.21 193.96C1779.05 191.32 1775.63 190 1770.95 190C1766.63 190 1762.73 191.2 1759.25 193.6C1755.77 196 1753.01 199.3 1750.97 203.5C1749.05 207.7 1748.09 212.56 1748.09 218.08V253H1731.35V178.48H1746.29Z" fill="white"/>
</g>
<g filter="url(#filter1_d_527_100)">
<path fill-rule="evenodd" clip-rule="evenodd" d="M210.378 321C287.548 321 350.106 258.32 350.106 181C350.106 103.68 287.548 41 210.378 41C133.209 41 70.6504 103.68 70.6504 181C70.6504 258.32 133.209 321 210.378 321ZM210.378 301.784C276.955 301.784 330.927 247.707 330.927 181C330.927 114.293 276.955 60.2155 210.378 60.2155C143.8 60.2155 89.8283 114.293 89.8283 181C89.8283 247.707 143.8 301.784 210.378 301.784Z" fill="white"/>
<path fill-rule="evenodd" clip-rule="evenodd" d="M306.78 180.617C306.78 233.546 262.79 276.454 209.924 276.454C157.058 276.454 114.201 233.546 114.201 180.617C114.201 156.347 128.049 156.122 144.498 155.854C161.831 155.572 182.053 155.242 192.004 126.682C209.357 48.2543 306.78 105.546 306.78 180.617ZM266.178 140.546C266.178 150.024 258.053 158.727 248.031 158.727C238.009 158.727 229.885 150.024 229.885 140.546C229.885 131.067 238.009 122.364 248.031 122.364C258.053 122.364 266.178 131.067 266.178 140.546ZM143.689 224.96C150.453 224.96 155.257 217.171 155.257 210.773C155.257 204.375 154.31 200.091 147.545 200.091C140.78 200.091 133.254 206.289 133.254 212.687C133.254 219.085 136.924 224.96 143.689 224.96ZM174.861 236.184C176.359 241.784 173.978 249.731 168.056 251.32C162.135 252.91 157.548 248.63 156.05 243.03C154.552 237.429 159.689 230.236 165.61 228.646C171.532 227.056 173.364 230.583 174.861 236.184ZM199.735 267.138C204.511 264.375 204.734 256.914 202.131 252.396C199.528 247.879 197.116 245.242 192.34 248.005C187.564 250.767 184.772 258.217 187.375 262.734C189.978 267.252 194.959 269.901 199.735 267.138Z" fill="white"/>
<path d="M377.929 89.3414L342.199 158.101L324.609 122.591L300.632 85.9642L377.929 89.3414Z" fill="white"/>
<path d="M45.0185 166.455L76.0943 186.227L104.675 248.955L92.1996 255.318L45.0185 166.455Z" fill="white"/>
<path d="M54.5089 124.966L79.4182 152.123L90.8215 220.125L77.1275 223.036L54.5089 124.966Z" fill="white"/>
</g>
<defs>
<filter id="filter0_d_527_100" x="462.72" y="83.6802" width="1369.01" height="201.12" filterUnits="userSpaceOnUse" color-interpolation-filters="sRGB">
<feFlood flood-opacity="0" result="BackgroundImageFix"/>
<feColorMatrix in="SourceAlpha" type="matrix" values="0 0 0 0 0 0 0 0 0 0 0 0 0 0 0 0 0 0 127 0" result="hardAlpha"/>
<feOffset/>
<feGaussianBlur stdDeviation="15"/>
<feComposite in2="hardAlpha" operator="out"/>
<feColorMatrix type="matrix" values="0 0 0 0 0 0 0 0 0 0.639216 0 0 0 0 1 0 0 0 1 0"/>
<feBlend mode="normal" in2="BackgroundImageFix" result="effect1_dropShadow_527_100"/>
<feBlend mode="normal" in="SourceGraphic" in2="effect1_dropShadow_527_100" result="shape"/>
</filter>
<filter id="filter1_d_527_100" x="-3" y="0" width="446.712" height="370" filterUnits="userSpaceOnUse" color-interpolation-filters="sRGB">
<feFlood flood-opacity="0" result="BackgroundImageFix"/>
<feColorMatrix in="SourceAlpha" type="matrix" values="0 0 0 0 0 0 0 0 0 0 0 0 0 0 0 0 0 0 127 0" result="hardAlpha"/>
<feOffset dy="4"/>
<feGaussianBlur stdDeviation="22.5"/>
<feComposite in2="hardAlpha" operator="out"/>
<feColorMatrix type="matrix" values="0 0 0 0 0 0 0 0 0 0.639216 0 0 0 0 1 0 0 0 1 0"/>
<feBlend mode="normal" in2="BackgroundImageFix" result="effect1_dropShadow_527_100"/>
<feBlend mode="normal" in="SourceGraphic" in2="effect1_dropShadow_527_100" result="shape"/>
</filter>
</defs>
</svg>
