<svg width="1541" height="374" viewBox="0 0 1541 374" fill="none" xmlns="http://www.w3.org/2000/svg">
<g filter="url(#filter0_d_524_57)">
<path fill-rule="evenodd" clip-rule="evenodd" d="M186.892 328.783C265.256 328.783 328.783 265.256 328.783 186.892C328.783 108.527 265.256 45 186.892 45C108.527 45 45 108.527 45 186.892C45 265.256 108.527 328.783 186.892 328.783ZM186.891 309.308C254.5 309.308 309.307 254.5 309.307 186.891C309.307 119.283 254.5 64.475 186.891 64.475C119.283 64.475 64.475 119.283 64.475 186.891C64.475 254.5 119.283 309.308 186.891 309.308Z" fill="white"/>
<path fill-rule="evenodd" clip-rule="evenodd" d="M189.846 110.482C182.679 118.469 183.09 130.615 190.602 138.104C188.067 137.222 185.662 135.834 183.54 133.93C174.976 126.245 174.263 113.072 181.948 104.507C189.633 95.9428 202.806 95.2299 211.37 102.915C212.503 103.931 213.498 105.044 214.355 106.229C206.372 101.899 196.177 103.426 189.846 110.482ZM96.23 183.792C96.7387 165.592 102.427 148.686 111.873 134.498C112.508 143.284 116.185 151.892 122.903 158.61C123.617 159.324 124.352 160.004 125.107 160.649C117.1 151.286 114.382 138.953 116.953 127.574C125.13 117.432 135.375 109.025 147.046 102.995C143.162 113.083 141.033 124.043 141.033 135.5C141.033 185.482 181.551 226 231.533 226C243.177 226 254.307 223.801 264.53 219.796C273.897 205.778 276.746 188.023 271.744 171.508C273.408 173.485 274.921 175.635 276.258 177.951C283.487 190.473 283.94 205.047 278.753 217.427C265.959 254.07 231.092 280.357 190.086 280.357C169.862 280.357 151.131 273.963 135.806 263.087C140.232 262.37 144.606 260.851 148.72 258.476C157.666 253.311 163.717 245.057 166.305 235.839C163.106 241.044 158.604 245.549 152.942 248.818C143.561 254.234 132.83 255.196 123.199 252.359C108.078 237.012 98.1997 216.486 96.466 193.683C105.363 205.218 120.493 211.033 135.453 207.43C119.006 207.782 103.638 198.578 96.23 183.792ZM251.547 128.847C249.761 130.74 244.893 129.045 240.673 125.063C236.454 121.081 234.481 116.319 236.267 114.426C238.053 112.534 242.921 114.228 247.141 118.21C251.36 122.192 253.333 126.955 251.547 128.847ZM269.869 135.466C270.726 138.665 272.583 140.946 274.018 140.562C275.453 140.177 275.921 137.273 275.064 134.074C274.207 130.875 272.349 128.594 270.914 128.978C269.48 129.363 269.012 132.267 269.869 135.466Z" fill="white"/>
</g>
<g filter="url(#filter1_d_524_57)">
<path d="M459.72 252V117.72H459.9L528.12 214.56L520.74 213.12L588.78 117.72H589.14V252H571.86V157.32L572.94 166.14L523.8 235.62H523.44L473.58 166.14L476.64 158.04V252H459.72ZM653.356 253.8C646.396 253.8 640.036 252.3 634.276 249.3C628.636 246.3 624.136 241.92 620.776 236.16C617.536 230.28 615.916 223.14 615.916 214.74C615.916 206.46 617.656 199.32 621.136 193.32C624.616 187.2 629.236 182.52 634.996 179.28C640.876 176.04 647.296 174.42 654.256 174.42C661.216 174.42 667.096 176.04 671.896 179.28C676.696 182.4 680.356 186.12 682.876 190.44L681.796 193.32L683.416 177.48H698.896V252H682.156V232.56L683.956 236.88C683.476 238.08 682.396 239.64 680.716 241.56C679.156 243.36 676.996 245.22 674.236 247.14C671.596 249.06 668.536 250.68 665.056 252C661.576 253.2 657.676 253.8 653.356 253.8ZM657.856 239.94C662.056 239.94 665.836 239.16 669.196 237.6C672.556 236.04 675.316 233.88 677.476 231.12C679.756 228.24 681.316 224.82 682.156 220.86V206.28C681.196 202.68 679.516 199.56 677.116 196.92C674.716 194.16 671.836 192.06 668.476 190.62C665.116 189.06 661.396 188.28 657.316 188.28C652.876 188.28 648.796 189.36 645.076 191.52C641.356 193.68 638.356 196.68 636.076 200.52C633.916 204.36 632.836 208.86 632.836 214.02C632.836 218.82 633.976 223.2 636.256 227.16C638.536 231.12 641.596 234.24 645.436 236.52C649.276 238.8 653.416 239.94 657.856 239.94ZM763.685 288.9C758.165 288.9 753.305 288.24 749.105 286.92C744.905 285.72 741.065 283.98 737.585 281.7C734.225 279.42 730.985 276.84 727.865 273.96L737.585 262.62C741.545 266.34 745.565 269.22 749.645 271.26C753.725 273.3 758.285 274.32 763.325 274.32C768.965 274.32 773.705 273.36 777.545 271.44C781.505 269.64 784.505 267.06 786.545 263.7C788.585 260.46 789.605 256.68 789.605 252.36L789.785 232.2L791.225 235.44C789.065 240.6 785.165 244.98 779.525 248.58C773.885 252.06 767.045 253.8 759.005 253.8C752.165 253.8 745.865 252.06 740.105 248.58C734.465 245.1 729.905 240.42 726.425 234.54C723.065 228.54 721.385 221.82 721.385 214.38C721.385 206.58 723.185 199.74 726.785 193.86C730.385 187.86 735.125 183.12 741.005 179.64C746.885 176.16 753.305 174.42 760.265 174.42C766.865 174.42 772.865 175.8 778.265 178.56C783.785 181.2 787.805 184.62 790.325 188.82L789.425 191.88L791.225 177.48H806.525V252.54C806.525 259.26 804.785 265.38 801.305 270.9C797.825 276.42 792.905 280.8 786.545 284.04C780.185 287.28 772.565 288.9 763.685 288.9ZM738.125 214.02C738.125 218.82 739.265 223.2 741.545 227.16C743.825 231.12 746.885 234.24 750.725 236.52C754.685 238.8 759.065 239.94 763.865 239.94C768.305 239.94 772.265 239.16 775.745 237.6C779.345 235.92 782.345 233.7 784.745 230.94C787.145 228.06 788.825 224.76 789.785 221.04V206.28C788.705 202.68 786.905 199.56 784.385 196.92C781.865 194.16 778.865 192.06 775.385 190.62C771.905 189.06 768.065 188.28 763.865 188.28C759.065 188.28 754.685 189.36 750.725 191.52C746.885 193.68 743.825 196.74 741.545 200.7C739.265 204.54 738.125 208.98 738.125 214.02ZM879.363 253.8C873.723 253.8 868.263 252.48 862.983 249.84C857.823 247.2 853.803 243.66 850.923 239.22L852.003 234V287.82H835.443V176.4H849.843L852.183 195.48L850.383 190.26C853.983 185.7 858.543 181.92 864.063 178.92C869.583 175.92 875.763 174.42 882.603 174.42C889.563 174.42 895.803 176.1 901.323 179.46C906.963 182.82 911.403 187.5 914.643 193.5C917.883 199.5 919.503 206.52 919.503 214.56C919.503 222.6 917.763 229.56 914.283 235.44C910.803 241.32 906.003 245.88 899.883 249.12C893.883 252.24 887.043 253.8 879.363 253.8ZM876.123 240.48C880.923 240.48 885.303 239.4 889.263 237.24C893.343 234.96 896.583 231.9 898.983 228.06C901.383 224.1 902.583 219.66 902.583 214.74C902.583 209.7 901.443 205.26 899.163 201.42C896.883 197.46 893.823 194.34 889.983 192.06C886.263 189.78 882.063 188.64 877.383 188.64C873.063 188.64 869.163 189.48 865.683 191.16C862.203 192.84 859.323 195.18 857.043 198.18C854.763 201.06 853.143 204.42 852.183 208.26V220.68C852.783 224.52 854.223 227.94 856.503 230.94C858.783 233.94 861.603 236.28 864.963 237.96C868.443 239.64 872.163 240.48 876.123 240.48ZM942.143 177.48H958.883V252H942.143V177.48ZM940.883 150.48C940.883 147.84 941.903 145.62 943.943 143.82C946.103 142.02 948.443 141.12 950.963 141.12C953.483 141.12 955.703 142.02 957.623 143.82C959.663 145.62 960.683 147.84 960.683 150.48C960.683 153.24 959.663 155.52 957.623 157.32C955.703 159 953.483 159.84 950.963 159.84C948.443 159.84 946.103 158.94 943.943 157.14C941.903 155.34 940.883 153.12 940.883 150.48ZM1022.41 253.8C1013.89 253.8 1006.57 252.12 1000.45 248.76C994.326 245.28 989.586 240.6 986.226 234.72C982.986 228.72 981.366 221.88 981.366 214.2C981.366 206.88 983.226 200.22 986.946 194.22C990.666 188.22 995.646 183.42 1001.89 179.82C1008.13 176.22 1015.09 174.42 1022.77 174.42C1032.61 174.42 1040.77 177.3 1047.25 183.06C1053.73 188.82 1058.11 196.74 1060.39 206.82L999.006 228.42L995.046 218.52L1045.45 200.16L1041.85 202.5C1040.41 198.54 1038.01 195.12 1034.65 192.24C1031.29 189.24 1026.91 187.74 1021.51 187.74C1016.95 187.74 1012.87 188.88 1009.27 191.16C1005.67 193.32 1002.85 196.32 1000.81 200.16C998.766 204 997.746 208.38 997.746 213.3C997.746 218.46 998.826 223.02 1000.99 226.98C1003.15 230.82 1006.09 233.88 1009.81 236.16C1013.65 238.32 1017.97 239.4 1022.77 239.4C1026.01 239.4 1029.13 238.8 1032.13 237.6C1035.25 236.4 1038.13 234.84 1040.77 232.92L1048.51 245.34C1044.79 247.86 1040.59 249.9 1035.91 251.46C1031.35 253.02 1026.85 253.8 1022.41 253.8ZM1142.45 252V121.86H1177.91C1190.75 121.86 1201.67 123.84 1210.67 127.8C1219.79 131.76 1227.11 136.98 1232.63 143.46C1238.15 149.94 1242.17 157.14 1244.69 165.06C1247.33 172.86 1248.65 180.66 1248.65 188.46C1248.65 198.3 1246.91 207.12 1243.43 214.92C1240.07 222.72 1235.39 229.38 1229.39 234.9C1223.39 240.42 1216.49 244.68 1208.69 247.68C1201.01 250.56 1192.85 252 1184.21 252H1142.45ZM1159.91 235.26H1180.79C1187.99 235.26 1194.59 234.18 1200.59 232.02C1206.71 229.86 1211.99 226.74 1216.43 222.66C1220.99 218.58 1224.53 213.6 1227.05 207.72C1229.57 201.72 1230.83 194.94 1230.83 187.38C1230.83 179.34 1229.51 172.32 1226.87 166.32C1224.23 160.2 1220.63 155.1 1216.07 151.02C1211.51 146.94 1206.35 143.88 1200.59 141.84C1194.83 139.68 1188.77 138.6 1182.41 138.6H1159.91V235.26ZM1297.42 254.88C1290.7 254.88 1285.12 252.84 1280.68 248.76C1276.36 244.56 1274.08 239.16 1273.84 232.56V177.48H1290.58V226.62C1290.82 230.7 1291.96 234 1294 236.52C1296.16 239.04 1299.52 240.36 1304.08 240.48C1308.28 240.48 1312 239.28 1315.24 236.88C1318.6 234.36 1321.3 231 1323.34 226.8C1325.38 222.48 1326.4 217.62 1326.4 212.22V177.48H1343.14V252H1327.84L1326.4 233.64L1327.3 236.88C1325.86 240.36 1323.64 243.48 1320.64 246.24C1317.76 248.88 1314.34 250.98 1310.38 252.54C1306.42 254.1 1302.1 254.88 1297.42 254.88ZM1406.66 253.8C1398.14 253.8 1390.82 252.12 1384.7 248.76C1378.58 245.28 1373.84 240.6 1370.48 234.72C1367.24 228.72 1365.62 221.88 1365.62 214.2C1365.62 206.88 1367.48 200.22 1371.2 194.22C1374.92 188.22 1379.9 183.42 1386.14 179.82C1392.38 176.22 1399.34 174.42 1407.02 174.42C1416.86 174.42 1425.02 177.3 1431.5 183.06C1437.98 188.82 1442.36 196.74 1444.64 206.82L1383.26 228.42L1379.3 218.52L1429.7 200.16L1426.1 202.5C1424.66 198.54 1422.26 195.12 1418.9 192.24C1415.54 189.24 1411.16 187.74 1405.76 187.74C1401.2 187.74 1397.12 188.88 1393.52 191.16C1389.92 193.32 1387.1 196.32 1385.06 200.16C1383.02 204 1382 208.38 1382 213.3C1382 218.46 1383.08 223.02 1385.24 226.98C1387.4 230.82 1390.34 233.88 1394.06 236.16C1397.9 238.32 1402.22 239.4 1407.02 239.4C1410.26 239.4 1413.38 238.8 1416.38 237.6C1419.5 236.4 1422.38 234.84 1425.02 232.92L1432.76 245.34C1429.04 247.86 1424.84 249.9 1420.16 251.46C1415.6 253.02 1411.1 253.8 1406.66 253.8ZM1472.82 144.72H1489.56V177.84H1510.08V190.98H1489.56V252H1472.82V190.98H1459.14V177.84H1472.82V144.72Z" fill="white"/>
</g>
<defs>
<filter id="filter0_d_524_57" x="0" y="0" width="373.783" height="373.783" filterUnits="userSpaceOnUse" color-interpolation-filters="sRGB">
<feFlood flood-opacity="0" result="BackgroundImageFix"/>
<feColorMatrix in="SourceAlpha" type="matrix" values="0 0 0 0 0 0 0 0 0 0 0 0 0 0 0 0 0 0 127 0" result="hardAlpha"/>
<feOffset/>
<feGaussianBlur stdDeviation="22.5"/>
<feColorMatrix type="matrix" values="0 0 0 0 0 0 0 0 0 0.64 0 0 0 0 1 0 0 0 1 0"/>
<feBlend mode="normal" in2="BackgroundImageFix" result="effect1_dropShadow_524_57"/>
<feBlend mode="normal" in="SourceGraphic" in2="effect1_dropShadow_524_57" result="shape"/>
</filter>
<filter id="filter1_d_524_57" x="429.72" y="87.72" width="1110.36" height="231.18" filterUnits="userSpaceOnUse" color-interpolation-filters="sRGB">
<feFlood flood-opacity="0" result="BackgroundImageFix"/>
<feColorMatrix in="SourceAlpha" type="matrix" values="0 0 0 0 0 0 0 0 0 0 0 0 0 0 0 0 0 0 127 0" result="hardAlpha"/>
<feOffset/>
<feGaussianBlur stdDeviation="15"/>
<feComposite in2="hardAlpha" operator="out"/>
<feColorMatrix type="matrix" values="0 0 0 0 0 0 0 0 0 0.639216 0 0 0 0 1 0 0 0 1 0"/>
<feBlend mode="normal" in2="BackgroundImageFix" result="effect1_dropShadow_524_57"/>
<feBlend mode="normal" in="SourceGraphic" in2="effect1_dropShadow_524_57" result="shape"/>
</filter>
</defs>
</svg>
